<svg width="40" height="43" viewBox="0 0 40 43" fill="none" xmlns="http://www.w3.org/2000/svg">
<path d="M11.6667 19.7083V12.5417C11.6667 10.1658 12.5446 7.88719 14.1074 6.20718C15.6702 4.52717 17.7899 3.58334 20 3.58334C22.2101 3.58334 24.3298 4.52717 25.8926 6.20718C27.4554 7.88719 28.3333 10.1658 28.3333 12.5417V19.7083M8.33333 19.7083H31.6667C33.5076 19.7083 35 21.3127 35 23.2917V35.8333C35 37.8124 33.5076 39.4167 31.6667 39.4167H8.33333C6.49238 39.4167 5 37.8124 5 35.8333V23.2917C5 21.3127 6.49238 19.7083 8.33333 19.7083Z" stroke="white" stroke-width="4" stroke-linecap="round" stroke-linejoin="round"/>
</svg>
