<svg width="51" height="51" viewBox="0 0 51 51" fill="none" xmlns="http://www.w3.org/2000/svg">
<path d="M8.5 40.375V36.125H12.75V21.25C12.75 18.3104 13.6354 15.7073 15.4062 13.4406C17.1771 11.1385 19.4792 9.63333 22.3125 8.925V7.4375C22.3125 6.55208 22.6135 5.80833 23.2156 5.20625C23.8531 4.56875 24.6146 4.25 25.5 4.25C26.3854 4.25 27.1292 4.56875 27.7313 5.20625C28.3688 5.80833 28.6875 6.55208 28.6875 7.4375V8.925C31.5208 9.63333 33.8229 11.1385 35.5938 13.4406C37.3646 15.7073 38.25 18.3104 38.25 21.25V36.125H42.5V40.375H8.5ZM25.5 46.75C24.3313 46.75 23.3219 46.3427 22.4719 45.5281C21.6573 44.6781 21.25 43.6688 21.25 42.5H29.75C29.75 43.6688 29.325 44.6781 28.475 45.5281C27.6604 46.3427 26.6688 46.75 25.5 46.75ZM17 36.125H34V21.25C34 18.9125 33.1677 16.9115 31.5031 15.2469C29.8385 13.5823 27.8375 12.75 25.5 12.75C23.1625 12.75 21.1615 13.5823 19.4969 15.2469C17.8323 16.9115 17 18.9125 17 21.25V36.125Z" fill="white"/>
</svg>
