<svg width="46" height="46" viewBox="0 0 46 46" fill="none" xmlns="http://www.w3.org/2000/svg">
<path d="M23.0003 23C20.892 23 19.0871 22.2493 17.5857 20.7479C16.0844 19.2465 15.3337 17.4417 15.3337 15.3333C15.3337 13.225 16.0844 11.4201 17.5857 9.91874C19.0871 8.41735 20.892 7.66666 23.0003 7.66666C25.1087 7.66666 26.9135 8.41735 28.4149 9.91874C29.9163 11.4201 30.667 13.225 30.667 15.3333C30.667 17.4417 29.9163 19.2465 28.4149 20.7479C26.9135 22.2493 25.1087 23 23.0003 23ZM7.66699 38.3333V32.9667C7.66699 31.8805 7.94651 30.8823 8.50553 29.9719C9.06456 29.0614 9.80727 28.3667 10.7337 27.8875C12.7142 26.8972 14.7267 26.1545 16.7712 25.6594C18.8156 25.1642 20.892 24.9167 23.0003 24.9167C25.1087 24.9167 27.185 25.1642 29.2295 25.6594C31.2739 26.1545 33.2864 26.8972 35.267 27.8875C36.1934 28.3667 36.9361 29.0614 37.4951 29.9719C38.0541 30.8823 38.3337 31.8805 38.3337 32.9667V38.3333H7.66699ZM11.5003 34.5H34.5003V32.9667C34.5003 32.6153 34.4125 32.2958 34.2368 32.0083C34.0611 31.7208 33.8295 31.4972 33.542 31.3375C31.817 30.475 30.076 29.8281 28.3191 29.3969C26.5621 28.9656 24.7892 28.75 23.0003 28.75C21.2114 28.75 19.4385 28.9656 17.6816 29.3969C15.9246 29.8281 14.1837 30.475 12.4587 31.3375C12.1712 31.4972 11.9396 31.7208 11.7639 32.0083C11.5882 32.2958 11.5003 32.6153 11.5003 32.9667V34.5ZM23.0003 19.1667C24.0545 19.1667 24.9569 18.7913 25.7076 18.0406C26.4583 17.2899 26.8337 16.3875 26.8337 15.3333C26.8337 14.2792 26.4583 13.3767 25.7076 12.626C24.9569 11.8753 24.0545 11.5 23.0003 11.5C21.9462 11.5 21.0437 11.8753 20.293 12.626C19.5423 13.3767 19.167 14.2792 19.167 15.3333C19.167 16.3875 19.5423 17.2899 20.293 18.0406C21.0437 18.7913 21.9462 19.1667 23.0003 19.1667Z" fill="#FEF7FF"/>
</svg>
