<?xml version="1.0" standalone="no"?>
<!DOCTYPE svg PUBLIC "-//W3C//DTD SVG 20010904//EN"
 "http://www.w3.org/TR/2001/REC-SVG-20010904/DTD/svg10.dtd">
<svg version="1.0" xmlns="http://www.w3.org/2000/svg"
 width="1500.000000pt" height="1500.000000pt" viewBox="0 0 1500.000000 1500.000000"
 preserveAspectRatio="xMidYMid meet">

<g transform="translate(0.000000,1500.000000) scale(0.100000,-0.100000)"
fill="#FFFFFF" stroke="none">
<path d="M6785 12663 c-932 -81 -1744 -681 -2091 -1545 -103 -256 -168 -558
-177 -823 l-2 -70 -725 -5 c-791 -6 -745 -3 -913 -66 -149 -57 -317 -195 -411
-339 -64 -97 -99 -177 -129 -287 l-22 -83 0 -3315 c0 -3219 1 -3317 19 -3385
86 -318 312 -544 626 -627 l85 -23 4170 0 4170 0 85 23 c311 82 535 305 622
617 22 79 22 88 26 877 l3 797 213 3 213 3 48 30 c32 20 56 45 72 74 l23 44 0
986 c0 938 -1 988 -19 1026 -22 47 -64 89 -104 104 -17 7 -114 11 -237 11
l-209 0 -3 698 c-4 685 -4 698 -26 777 -67 242 -234 443 -456 550 -136 66
-185 76 -388 82 l-178 5 0 107 c0 559 -341 1048 -860 1236 -158 57 -226 67
-492 72 l-248 5 0 70 c0 150 -41 406 -95 592 -162 560 -521 1047 -1014 1377
-117 78 -330 189 -467 242 -191 75 -447 136 -663 157 -96 9 -354 11 -446 3z
m550 -413 c459 -78 846 -284 1172 -623 286 -298 478 -686 548 -1107 38 -226
30 -523 -21 -761 -66 -313 -228 -651 -428 -891 l-56 -68 -698 0 -697 0 3 217
c1 120 5 224 7 231 3 9 37 12 123 12 200 0 315 44 443 170 187 184 232 441
117 679 -75 156 -239 286 -406 320 -32 7 -192 11 -405 11 -422 1 -484 6 -535
47 -47 37 -82 105 -82 158 0 50 28 111 68 149 57 53 76 55 682 49 625 -6 619
-7 686 61 89 88 80 215 -20 291 -48 37 -119 44 -423 45 l-243 0 0 158 c0 178
-12 220 -71 264 -77 58 -166 60 -239 7 -68 -50 -80 -87 -80 -270 l0 -156 -137
-5 c-164 -6 -247 -30 -356 -104 -90 -62 -150 -131 -197 -229 -49 -102 -64
-180 -57 -298 15 -251 174 -450 427 -533 48 -15 109 -18 485 -23 l430 -6 47
-27 c53 -32 98 -108 98 -167 0 -58 -42 -136 -91 -168 l-43 -28 -615 -5 c-683
-6 -651 -2 -705 -72 -74 -98 -44 -238 63 -295 43 -23 50 -23 343 -23 l298 0 0
-207 c0 -115 3 -218 6 -230 l6 -23 -671 0 -671 0 -56 68 c-180 215 -331 508
-404 786 -47 178 -61 279 -67 476 -15 491 124 930 418 1320 103 136 307 338
434 429 311 220 645 348 1016 390 130 15 414 5 554 -19z m-2785 -2477 c68
-353 193 -669 378 -951 l15 -23 -909 3 -909 3 -66 26 c-94 36 -146 69 -206
129 -94 96 -143 217 -143 358 0 143 45 254 144 355 80 81 173 130 281 147 28
4 355 8 727 9 l677 1 11 -57z m5438 28 c248 -63 455 -222 576 -442 72 -132
103 -248 112 -426 6 -100 4 -123 -7 -128 -8 -3 -375 -4 -816 -3 l-801 3 55 90
c152 249 263 534 318 810 8 44 18 91 21 104 l5 23 227 -5 c186 -4 242 -9 310
-26z m-7197 -1285 c46 -25 125 -57 174 -73 l90 -28 4155 -5 c3833 -5 4158 -6
4196 -22 155 -62 246 -153 294 -293 19 -56 20 -84 20 -732 l0 -673 -1199 0
c-1304 0 -1282 1 -1450 -56 -504 -172 -827 -671 -772 -1192 16 -146 48 -259
111 -388 130 -268 371 -482 650 -577 188 -64 106 -60 1443 -64 l1217 -4 0
-772 c0 -831 1 -806 -53 -913 -30 -59 -117 -148 -172 -176 -21 -11 -64 -29
-94 -39 -53 -18 -171 -19 -4185 -19 -3506 0 -4138 2 -4177 14 -151 46 -254
145 -315 302 -18 48 -19 137 -22 2902 -1 1568 0 2852 2 2852 2 0 41 -20 87
-44z m9509 -2961 l0 -745 -1481 0 c-1649 0 -1546 -4 -1704 69 -197 92 -351
278 -406 488 -26 100 -28 261 -4 359 55 227 227 428 445 518 138 57 72 54
1673 55 l1477 1 0 -745z"/>
<path d="M9453 5886 c-89 -29 -176 -107 -216 -194 -34 -73 -31 -207 5 -284 66
-142 224 -225 376 -197 190 36 318 218 282 404 -22 115 -85 196 -192 251 -64
33 -186 43 -255 20z"/>
</g>
</svg>
